<svg xmlns="http://www.w3.org/2000/svg" xmlns:xlink="http://www.w3.org/1999/xlink" version="1.1" x="0px" y="0px" viewBox="20.865 20.865 100 100" enable-background="new 20.865 20.865 100 100" xml:space="preserve"><path d="M27.777,81.953c-0.083-4.16,5.71-13.229,14.234-13.105c12.909,0.188,21.688,7.519,21.688,7.519s-26.922-4.271-26.707,6.479  c0.112,5.633,9.609,8.404,17.484,8.574c11.801,0.252,26.585-23.463,41.2-23.151c8.877,0.188,18.06,4.833,18.274,15.639  c0.203,10.17-9.254,13.436-18.563,13.236C69.841,96.597,41.6,85.949,41.317,71.789c-0.253-12.658,10.114-16.48,24.225-15.502  c4.46,0.31,12.655,3.256,18.442,1.583c1.641-0.475,3.281-0.934,4.859-1.598c0.854-0.36,2.973-1.168,2.785-2.472  c-0.088-4.055,0.164-4.019,1.058-5.999c0.89-1.972,3.03-2.898,4.915-3.794c0.003-0.001,3.449-0.7,3.449-0.7  c0.453-0.217,1.936-3.934,1.96-4.79c0.03-1.083,0.101-0.923,0.079-2.126c-0.015-0.76,0.574-0.746,0.574-0.746  s0.096,0.285,0.18,0.849c0.163,1.11-0.164,0.993-0.068,1.667c0.601-0.441,1.452-0.919,1.452-0.919  c0.422-0.175,1.229,0.066,1.229,0.066s-0.299,0.571-0.717,0.764c-0.962,0.348-0.943,0.173-1.713,0.966  c-0.502,0.521-0.934,3.514-1.296,4.536l2.717,3.235c0,0,1.558,2.771,0.623,6.823c-1.008,4.379-2.51,4.736-5.574,7.333  c-2.229,1.887-5.012,3.93-6.766,4.8c-3.16,1.414-3.344,1.678-6.769,2.183c-10.382,1.531-17.12-2.425-24.619-2.585  c-7.958-0.17-10.264,3.59-10.22,5.788c0.192,9.671,29.489,16.255,41.13,16.705c3.356,0.131,10.51-0.373,10.578-5.109  c0.055-3.814-5.211-4.363-9.472-4.455c-8.242-0.176-23.68,22.602-39.595,22.262C31.263,100.051,27.945,90.39,27.777,81.953z"></path></svg>